<?xml version="1.0" standalone="no"?>
<!DOCTYPE svg PUBLIC "-//W3C//DTD SVG 20010904//EN"
 "http://www.w3.org/TR/2001/REC-SVG-20010904/DTD/svg10.dtd">
<svg version="1.0" xmlns="http://www.w3.org/2000/svg"
 width="232.000000pt" height="60.000000pt" viewBox="0 0 232.000000 60.000000"
 preserveAspectRatio="xMidYMid meet">

<g transform="translate(0.000000,60.000000) scale(0.100000,-0.100000)"
fill="#000000" stroke="none">
<path d="M934 400 c-12 -5 -25 -14 -30 -21 -12 -20 34 -49 77 -49 47 0 61 -18
17 -22 -52 -5 -47 -28 7 -28 55 0 85 14 85 39 0 22 -10 27 -74 36 -52 8 -62
25 -15 25 20 0 29 4 27 13 -5 15 -65 20 -94 7z"/>
<path d="M1118 404 c-3 -3 8 -31 26 -62 38 -69 65 -78 92 -33 10 17 22 31 25
31 4 0 17 -13 29 -30 32 -44 55 -39 90 23 16 28 30 58 30 65 0 23 -39 12 -57
-15 -9 -16 -18 -30 -20 -32 -2 -3 -17 10 -33 28 -25 27 -33 30 -50 21 -11 -6
-24 -19 -30 -30 -14 -27 -22 -25 -42 10 -15 27 -45 39 -60 24z"/>
<path d="M1441 353 c-23 -31 -41 -60 -41 -65 0 -11 48 -10 55 2 3 6 24 10 45
10 21 0 42 -4 45 -10 7 -11 55 -14 55 -4 0 9 -72 107 -85 116 -21 16 -35 6
-74 -49z m64 -13 c3 -5 1 -10 -4 -10 -6 0 -11 5 -11 10 0 6 2 10 4 10 3 0 8
-4 11 -10z"/>
<path d="M1644 396 c-3 -7 -4 -35 -2 -62 3 -44 5 -49 29 -52 20 -2 28 2 32 17
4 17 13 21 49 21 51 0 82 18 76 45 -5 29 -46 45 -116 45 -44 0 -64 -4 -68 -14z
m126 -31 c0 -10 -11 -15 -35 -15 -24 0 -35 5 -35 15 0 10 11 15 35 15 24 0 35
-5 35 -15z"/>
<path d="M1890 397 c-14 -7 -25 -19 -25 -27 0 -19 42 -40 82 -40 43 0 52 -18
11 -22 -52 -5 -47 -28 7 -28 55 0 85 14 85 39 0 22 -10 27 -74 36 -52 8 -62
25 -15 25 43 0 32 24 -12 28 -19 1 -45 -4 -59 -11z"/>
<path d="M1001 214 c0 -11 3 -14 6 -6 3 7 2 16 -1 19 -3 4 -6 -2 -5 -13z"/>
<path d="M1461 214 c0 -11 3 -14 6 -6 3 7 2 16 -1 19 -3 4 -6 -2 -5 -13z"/>
<path d="M1980 216 c0 -7 7 -13 15 -13 8 0 15 4 15 8 0 4 -7 9 -15 13 -9 3
-15 0 -15 -8z"/>
<path d="M960 212 c0 -5 7 -9 15 -9 8 0 15 4 15 9 0 4 -7 8 -15 8 -8 0 -15 -4
-15 -8z"/>
<path d="M1030 210 c0 -5 5 -10 10 -10 6 0 10 5 10 10 0 6 -4 10 -10 10 -5 0
-10 -4 -10 -10z"/>
<path d="M1350 212 c0 -5 7 -9 15 -9 8 0 15 4 15 9 0 4 -7 8 -15 8 -8 0 -15
-4 -15 -8z"/>
</g>
</svg>
